<?xml version="1.0" encoding="UTF-8" standalone="no"?>
<svg
   width="100%"
   height="100%"
   viewBox="0 0 192 192"
   version="1.1"
   id="svg51"
   sodipodi:docname="Chrome WebStore.svg"
   inkscape:version="1.1 (c4e8f9ed74, 2021-05-24)"
   xmlns:inkscape="http://www.inkscape.org/namespaces/inkscape"
   xmlns:sodipodi="http://sodipodi.sourceforge.net/DTD/sodipodi-0.dtd"
   xmlns:xlink="http://www.w3.org/1999/xlink"
   xmlns="http://www.w3.org/2000/svg"
   xmlns:svg="http://www.w3.org/2000/svg">
  <sodipodi:namedview
     id="namedview53"
     pagecolor="#ffffff"
     bordercolor="#666666"
     borderopacity="1.0"
     inkscape:pageshadow="2"
     inkscape:pageopacity="0.0"
     inkscape:pagecheckerboard="0"
     showgrid="false"
     inkscape:zoom="3.3489583"
     inkscape:cx="67.48367"
     inkscape:cy="91.371695"
     inkscape:window-width="1440"
     inkscape:window-height="837"
     inkscape:window-x="0"
     inkscape:window-y="0"
     inkscape:window-maximized="0"
     inkscape:current-layer="svg51" />
  <defs
     id="defs3">
    <path
       id="a"
       d="M8 20v140c0 6.6 5.4 12 12 12h152c6.6 0 12-5.4 12-12V20H8zm108 32H76c-4.42 0-8-3.58-8-8s3.58-8 8-8h40c4.42 0 8 3.58 8 8s-3.58 8-8 8z" />
  </defs>
  <clipPath
     id="b">
    <use
       xlink:href="#a"
       overflow="visible"
       id="use5" />
  </clipPath>
  <path
     clip-path="url(#b)"
     fill="#eee"
     d="M8 20h176v152H8z"
     id="path8" />
  <path
     fill="#fff"
     d="M116 36H76c-4.42 0-8 3.58-8 8s3.58 8 8 8h40c4.42 0 8-3.58 8-8s-3.58-8-8-8z"
     clip-path="url(#b)"
     id="path10" />
  <g
     clip-path="url(#b)"
     id="g30">
    <defs
       id="defs13">
      <circle
         id="c"
         cx="96"
         cy="160"
         r="76" />
    </defs>
    <clipPath
       id="d">
      <use
         xlink:href="#c"
         overflow="visible"
         id="use15" />
    </clipPath>
    <path
       d="M32.07 84v93.27h34.01L96 125.45h76V84zm0 0v93.27h34.01L96 125.45h76V84z"
       clip-path="url(#d)"
       fill="#DB4437"
       id="path18" />
    <path
       d="M20 236h72.34l33.58-33.58v-25.14l-59.84-.01L20 98.24zm0 0h72.34l33.58-33.58v-25.14l-59.84-.01L20 98.24z"
       clip-path="url(#d)"
       fill="#0F9D58"
       id="path20" />
    <path
       d="M96 125.45l29.92 51.82L92.35 236H172V125.45zm0 0l29.92 51.82L92.35 236H172V125.45z"
       clip-path="url(#d)"
       fill="#FFCD40"
       id="path22" />
    <g
       clip-path="url(#d)"
       id="g28">
      <circle
         fill="#F1F1F1"
         cx="96"
         cy="160"
         r="34.55"
         id="circle24" />
      <circle
         fill="#4285F4"
         cx="96"
         cy="160"
         r="27.64"
         id="circle26" />
    </g>
  </g>
  <path
     clip-path="url(#b)"
     fill="#212121"
     fill-opacity=".05"
     d="M8 20h176v76H8z"
     id="path32" />
  <path
     fill="#212121"
     fill-opacity=".02"
     d="M8 95h176v1H8z"
     id="path34" />
  <path
     fill="#fff"
     fill-opacity=".05"
     d="M8 96h176v1H8z"
     id="path36" />
  <path
     fill="#212121"
     fill-opacity=".02"
     d="M116 52H76c-4.25 0-7.72-3.32-7.97-7.5-.02.17-.03.33-.03.5 0 4.42 3.58 8 8 8h40c4.42 0 8-3.58 8-8 0-.17-.01-.33-.03-.5-.25 4.18-3.72 7.5-7.97 7.5zM8 20v1h176v-1H8z"
     id="path38" />
  <path
     fill="#231F20"
     fill-opacity=".1"
     d="M76 36h40c4.25 0 7.72 3.32 7.97 7.5.01-.17.03-.33.03-.5 0-4.42-3.58-8-8-8H76c-4.42 0-8 3.58-8 8 0 .17.01.33.03.5.25-4.18 3.72-7.5 7.97-7.5zm96 135H20c-6.6 0-12-5.4-12-12v1c0 6.6 5.4 12 12 12h152c6.6 0 12-5.4 12-12v-1c0 6.6-5.4 12-12 12z"
     id="path40" />
  <radialGradient
     id="e"
     cx="7.502"
     cy="19.344"
     r="227.596"
     gradientUnits="userSpaceOnUse">
    <stop
       offset="0"
       stop-color="#fff"
       stop-opacity=".1"
       id="stop42" />
    <stop
       offset="1"
       stop-color="#fff"
       stop-opacity="0"
       id="stop44" />
  </radialGradient>
  <path
     fill="url(#e)"
     d="M8 20v140c0 6.6 5.4 12 12 12h152c6.6 0 12-5.4 12-12V20H8zm108 32H76c-4.42 0-8-3.58-8-8s3.58-8 8-8h40c4.42 0 8 3.58 8 8s-3.58 8-8 8z"
     id="path47" />
  <path
     fill="none"
     d="M0 0h192v192H0z"
     id="path49" />
</svg>
